<svg width="44" height="44" viewBox="0 0 44 44" fill="none" xmlns="http://www.w3.org/2000/svg">
<g clip-path="url(#clip0_4_92)">
<path d="M15.9557 34.9307C15.6581 34.9861 15.528 35.1258 15.5653 35.3486C15.6024 35.5714 15.7696 35.6459 16.0669 35.5714C16.3645 35.4972 16.4945 35.3669 16.4571 35.1812C16.4202 34.977 16.253 34.8933 15.9557 34.9307Z" fill="white"/>
<path d="M14.3663 35.1539C14.069 35.1539 13.9204 35.2555 13.9204 35.4603C13.9204 35.7018 14.0785 35.8037 14.3942 35.7666C14.6915 35.7666 14.8403 35.6644 14.8403 35.4603C14.8403 35.2191 14.6822 35.1165 14.3663 35.1539Z" fill="white"/>
<path d="M12.1926 35.0698C12.1184 35.2743 12.2392 35.4133 12.5548 35.488C12.8335 35.5989 13.0101 35.5434 13.0843 35.3206C13.1402 35.1165 13.0193 34.9682 12.722 34.8747C12.4432 34.8006 12.2668 34.8648 12.1926 35.0698Z" fill="white"/>
<path d="M40.9693 2.86489C39.3992 1.29507 37.5091 0.51001 35.2975 0.51001H8.54144C6.33055 0.51001 4.43975 1.29507 2.86953 2.86489C1.29971 4.43501 0.514648 6.32581 0.514648 8.53681V35.2933C0.514648 37.5043 1.29971 39.3949 2.86953 40.9648C4.43965 42.5349 6.33055 43.32 8.54144 43.32H14.7845C15.193 43.32 15.4998 43.3059 15.7041 43.2786C15.9083 43.2504 16.1126 43.1296 16.3171 42.9157C16.5217 42.7022 16.6236 42.3909 16.6236 41.9823C16.6236 41.9268 16.6187 41.2944 16.6095 40.0868C16.6001 38.8787 16.5955 37.922 16.5955 37.2158L15.9544 37.3274C15.5457 37.4015 15.03 37.4342 14.4075 37.4249C13.7853 37.4155 13.1394 37.3507 12.4706 37.2298C11.8015 37.1089 11.1792 36.8303 10.6032 36.394C10.0274 35.957 9.61868 35.3858 9.37707 34.6799L9.09827 34.0384C8.9125 33.6116 8.62003 33.1375 8.22047 32.6177C7.82091 32.0972 7.41686 31.7441 7.00813 31.5583L6.81299 31.4189C6.68305 31.3261 6.5623 31.2141 6.45072 31.0842C6.33934 30.9539 6.25577 30.8236 6.20003 30.694C6.14429 30.5637 6.19056 30.4568 6.33934 30.3729C6.48811 30.2894 6.75725 30.2481 7.14763 30.2481L7.70484 30.3315C8.07658 30.4057 8.53617 30.6285 9.0846 31.0003C9.63264 31.3719 10.0832 31.8549 10.4362 32.4493C10.8638 33.2113 11.379 33.7916 11.9831 34.1911C12.5868 34.5911 13.1955 34.7908 13.8085 34.7908C14.4216 34.7908 14.9511 34.7443 15.3972 34.6518C15.8428 34.5587 16.2609 34.419 16.6513 34.2332C16.8185 32.9884 17.2738 32.031 18.0168 31.3622C16.9578 31.2506 16.0057 31.0836 15.16 30.8604C14.3148 30.6373 13.4414 30.2752 12.5403 29.7733C11.6389 29.2716 10.8912 28.6495 10.2966 27.9059C9.70205 27.1622 9.21414 26.1868 8.83352 24.9794C8.45271 23.7714 8.26225 22.3776 8.26225 20.7985C8.26225 18.5504 8.99645 16.6362 10.4643 15.057C9.77663 13.3663 9.84155 11.4713 10.6592 9.37146C11.1981 9.20414 11.9972 9.32967 13.0562 9.74778C14.1153 10.1662 14.8908 10.524 15.3834 10.8208C15.876 11.1178 16.2707 11.3689 16.568 11.5735C18.2964 11.0903 20.08 10.8488 21.9194 10.8488C23.7586 10.8488 25.5425 11.0903 27.271 11.5735L28.3301 10.9046C29.055 10.4585 29.9096 10.0497 30.8944 9.67828C31.8792 9.30674 32.6316 9.20443 33.1521 9.37175C33.9879 11.4716 34.0627 13.3666 33.3746 15.0572C34.8424 16.6366 35.5768 18.5507 35.5768 20.7987C35.5768 22.3782 35.3863 23.7766 35.0055 24.9934C34.625 26.2104 34.1329 27.1862 33.5285 27.9201C32.9248 28.6541 32.1722 29.2715 31.2712 29.7735C30.3699 30.275 29.4966 30.6378 28.651 30.8602C27.8056 31.0834 26.8535 31.2511 25.7944 31.3627C26.76 32.1985 27.243 33.5173 27.243 35.32V41.9814C27.243 42.2974 27.2891 42.5527 27.382 42.7478C27.4755 42.9428 27.6239 43.0772 27.8282 43.152C28.0334 43.2262 28.2137 43.2726 28.3721 43.2911C28.5304 43.3097 28.7576 43.3191 29.0549 43.3191H35.298C37.5089 43.3191 39.3998 42.534 40.9692 40.9639C42.5393 39.3938 43.3244 37.5029 43.3244 35.292V8.53681C43.3242 6.32581 42.5391 4.43472 40.9693 2.86489Z" fill="white"/>
<path d="M8.98712 31.6698C8.85718 31.7624 8.87573 31.911 9.04295 32.1155C9.22902 32.3011 9.3775 32.3291 9.48908 32.1989C9.61901 32.1064 9.60046 31.9577 9.43295 31.7529C9.24727 31.586 9.09869 31.558 8.98712 31.6698Z" fill="white"/>
<path d="M8.06807 30.9729C8.01243 31.1032 8.07744 31.2148 8.26321 31.3073C8.41169 31.4005 8.53284 31.3822 8.62548 31.2519C8.68113 31.1215 8.61611 31.01 8.43034 30.9167C8.24457 30.8609 8.12381 30.8796 8.06807 30.9729Z" fill="white"/>
<path d="M9.85115 32.7569C9.68373 32.8494 9.68373 33.0171 9.85115 33.2583C10.0184 33.5002 10.176 33.5651 10.3249 33.4534C10.4922 33.3232 10.4922 33.1467 10.3249 32.9236C10.1764 32.6827 10.0184 32.6263 9.85115 32.7569Z" fill="white"/>
<path d="M10.8274 34.0106C10.6601 34.1596 10.697 34.3354 10.9389 34.5405C11.1615 34.763 11.3474 34.791 11.4961 34.6234C11.6448 34.4751 11.6076 34.2987 11.3846 34.0943C11.1619 33.8717 10.976 33.8436 10.8274 34.0106Z" fill="white"/>
<path fill-rule="evenodd" clip-rule="evenodd" d="M6.78562 0.51001H37.0535C40.511 0.51001 43.3245 3.32346 43.3245 6.78098V37.0489C43.3245 40.5064 40.511 43.3199 37.0535 43.3199H34.077L40.6487 5.8613H5.86567L3.85896 38.6376L13.2235 43.3199H6.78562C3.32809 43.3199 0.514648 40.5064 0.514648 37.0489V6.78098C0.514648 3.32346 3.32809 0.51001 6.78562 0.51001Z" fill="white"/>
</g>
<defs>
<clipPath id="clip0_4_92">
<rect width="42.8098" height="42.8098" fill="white" transform="translate(0.514648 0.51001)"/>
</clipPath>
</defs>
</svg>
