<svg width="44" height="44" viewBox="0 0 44 44" fill="none" xmlns="http://www.w3.org/2000/svg">
<g clip-path="url(#clip0_4_108)">
<path d="M37.2138 0.51001H6.07941C4.53115 0.51001 3.04631 1.12505 1.95152 2.21983C0.856741 3.31462 0.241699 4.79946 0.241699 6.34772L0.241699 37.4821C0.241699 39.0304 0.856741 40.5152 1.95152 41.61C3.04631 42.7048 4.53115 43.3199 6.07941 43.3199H37.2138C38.7621 43.3199 40.2469 42.7048 41.3417 41.61C42.4365 40.5152 43.0515 39.0304 43.0515 37.4821V6.34772C43.0515 4.79946 42.4365 3.31462 41.3417 2.21983C40.2469 1.12505 38.7621 0.51001 37.2138 0.51001V0.51001ZM34.9736 13.8175C34.3386 14.7662 33.5655 15.6147 32.6799 16.3351C32.5654 16.4273 32.4729 16.5439 32.4094 16.6765C32.3458 16.8091 32.3128 16.9542 32.3126 17.1013V17.1888C32.3027 19.1004 31.9518 20.995 31.2764 22.7833C30.5809 24.6578 29.5479 26.389 28.2286 27.8913C26.8492 29.4663 25.1557 30.7356 23.2569 31.6177C22.7328 31.8553 22.1951 32.0616 21.6466 32.2355C19.9705 32.7795 18.2181 33.0521 16.4559 33.0431C13.6651 33.0402 10.9246 32.3001 8.51178 30.8977C8.42538 30.8486 8.35744 30.7725 8.31835 30.6812C8.27926 30.5898 8.27116 30.4882 8.2953 30.3918C8.31977 30.2964 8.37546 30.2121 8.4535 30.1521C8.53154 30.0921 8.62742 30.06 8.72583 30.061H9.3923C11.5163 30.0656 13.5932 29.4354 15.3565 28.2513C14.3052 28.0802 13.3214 27.6226 12.5134 26.9287C11.7053 26.2348 11.1043 25.3315 10.7763 24.3181C10.7602 24.2683 10.7574 24.2152 10.768 24.164C10.7786 24.1127 10.8024 24.0652 10.837 24.0259C10.8716 23.9866 10.9158 23.9571 10.9653 23.9401C11.0148 23.9231 11.0679 23.9192 11.1193 23.9289C11.44 23.9899 11.7658 24.0209 12.0922 24.0214H12.2139C11.1981 23.5547 10.3394 22.8036 9.7415 21.8591C9.14362 20.9146 8.83224 19.8171 8.84502 18.6993C8.84542 18.6468 8.85953 18.5953 8.88594 18.5499C8.91236 18.5046 8.95016 18.4669 8.99562 18.4406C9.04107 18.4143 9.0926 18.4003 9.14511 18.4C9.19762 18.3998 9.24929 18.4132 9.29501 18.4391C9.70726 18.6684 10.1493 18.8394 10.6085 18.9474C9.69891 18.0482 9.11348 16.8725 8.94401 15.6047C8.77453 14.3369 9.03059 13.0488 9.67203 11.9422C9.69684 11.9016 9.73092 11.8674 9.77147 11.8425C9.81203 11.8176 9.8579 11.8026 9.90535 11.7988C9.9528 11.795 10.0005 11.8025 10.0445 11.8206C10.0885 11.8388 10.1275 11.8671 10.1585 11.9033C11.4325 13.4778 13.0098 14.7803 14.7969 15.7334C16.5841 16.6865 18.5445 17.2708 20.5618 17.4515H20.5837C20.6137 17.4511 20.6432 17.4444 20.6705 17.4318C20.6977 17.4193 20.722 17.4011 20.7418 17.3785C20.761 17.3568 20.7754 17.3313 20.7842 17.3036C20.793 17.276 20.7959 17.2468 20.7929 17.218C20.7172 16.5108 20.7632 15.7959 20.9291 15.1043C21.0743 14.4996 21.3211 13.9238 21.6588 13.4016C22.368 12.2876 23.4485 11.4605 24.709 11.0665C25.3002 10.8812 25.9161 10.786 26.5357 10.7844C27.9409 10.783 29.2981 11.2951 30.3521 12.2243C30.4864 12.3437 30.659 12.411 30.8386 12.4141C30.8977 12.4131 30.9565 12.4049 31.0137 12.3897C32.0041 12.1387 32.9534 11.7472 33.8328 11.2271C33.8854 11.1955 33.9463 11.1807 34.0075 11.1846C34.0687 11.1885 34.1273 11.211 34.1753 11.2491C34.2234 11.2871 34.2588 11.3389 34.2767 11.3976C34.2946 11.4562 34.2942 11.5189 34.2755 11.5773C33.9813 12.4983 33.4593 13.3299 32.7577 13.9951C33.3903 13.8452 34.0075 13.6367 34.6015 13.3724C34.6614 13.3457 34.7284 13.3393 34.7923 13.3541C34.8562 13.3689 34.9135 13.4041 34.9556 13.4545C34.9977 13.5048 35.0222 13.5675 35.0255 13.633C35.0287 13.6985 35.0105 13.7633 34.9736 13.8175Z" fill="white"/>
</g>
<defs>
<clipPath id="clip0_4_108">
<rect width="42.8098" height="42.8098" fill="white" transform="translate(0.241699 0.51001)"/>
</clipPath>
</defs>
</svg>
