<svg width="44" height="44" viewBox="0 0 44 44" fill="none" xmlns="http://www.w3.org/2000/svg">
<g clip-path="url(#clip0_4_114)">
<path d="M19.6216 17.702V25.5165L26.8245 21.6433L19.6216 17.702Z" fill="white"/>
<path fill-rule="evenodd" clip-rule="evenodd" d="M11.6712 0.51001H7.23972C3.7822 0.51001 0.96875 3.32346 0.96875 6.78098V11.2464V32.6174V37.0489C0.96875 40.5064 3.7822 43.3199 7.23972 43.3199H11.6712H33.0422H37.5076C40.9651 43.3199 43.7786 40.5064 43.7786 37.0489V32.5834V11.2464V6.78098C43.7786 3.32346 40.9651 0.51001 37.5076 0.51001H33.0422H11.6712ZM35.4205 27.487C35.4205 27.487 35.6243 25.2106 35.6243 22.9682V20.8617C35.6243 18.6193 35.4205 16.3429 35.4205 16.3429C35.4205 16.3429 35.2166 14.4062 34.4012 13.5568C33.4751 12.569 32.4369 12.4506 31.8725 12.3863C31.8157 12.3798 31.7637 12.3739 31.7171 12.3677C27.9797 12.0958 22.3737 12.0619 22.3737 12.0619C22.3737 12.0619 16.7676 12.0958 12.9963 12.3677C12.952 12.3736 12.9031 12.3792 12.85 12.3853C12.2925 12.4497 11.2768 12.567 10.3461 13.5908C9.5647 14.4402 9.32686 16.3429 9.32686 16.3429C9.32686 16.3429 9.12301 18.6193 9.12301 20.8617V22.9682C9.12301 25.2106 9.32686 27.487 9.32686 27.487C9.32686 27.487 9.53072 29.3897 10.3461 30.2391C11.2036 31.1823 12.3015 31.308 12.9723 31.3848C13.0989 31.3993 13.2104 31.412 13.3021 31.4282C15.4426 31.6321 22.4076 31.734 22.4076 31.734C22.4076 31.734 28.0137 31.7 31.7511 31.4282C31.8046 31.4211 31.8648 31.4147 31.931 31.4077C32.495 31.3479 33.4889 31.2426 34.4012 30.2391C35.1827 29.3897 35.4205 27.487 35.4205 27.487Z" fill="white"/>
</g>
<defs>
<clipPath id="clip0_4_114">
<rect width="42.8098" height="42.8098" fill="white" transform="translate(0.96875 0.51001)"/>
</clipPath>
</defs>
</svg>
