<svg width="43" height="44" viewBox="0 0 43 44" fill="none" xmlns="http://www.w3.org/2000/svg">
<g clip-path="url(#clip0_4_112)">
<path d="M36.6443 0.51001H6.37644C2.91891 0.51001 0.105469 3.32346 0.105469 6.78098V37.0489C0.105469 40.5064 2.91891 43.3199 6.37644 43.3199H36.6443C40.1019 43.3199 42.9153 40.5064 42.9153 37.0489V6.78098C42.9153 3.32346 40.1019 0.51001 36.6443 0.51001ZM15.2394 34.4569H10.2226V16.8982H15.2394V34.4569ZM15.2394 14.3898H10.2226V9.37299H15.2394V14.3898ZM32.7981 34.4569H27.7814V24.4233C27.7814 23.0404 26.6559 21.9149 25.273 21.9149C23.8901 21.9149 22.7646 23.0404 22.7646 24.4233V34.4569H17.7478V16.8982H22.7646V17.8437C24.0789 17.4351 24.9326 16.8982 26.5272 16.8982C29.9295 16.9017 32.7981 19.9539 32.7981 23.5611V34.4569Z" fill="white"/>
</g>
<defs>
<clipPath id="clip0_4_112">
<rect width="42.8098" height="42.8098" fill="white" transform="translate(0.105469 0.51001)"/>
</clipPath>
</defs>
</svg>
